<?xml version="1.0" encoding="UTF-8"?>
<svg id="Layer_2" data-name="Layer 2" xmlns="http://www.w3.org/2000/svg" viewBox="0 0 112.5 88.05">
  <defs>
    <style>
      .cls-1 {
        fill: #0f3451;
      }

      .cls-1, .cls-2 {
        stroke-width: 0px;
      }

      .cls-2 {
        fill: #9e875c;
      }
    </style>
  </defs>
  <g id="Layer_1-2" data-name="Layer 1">
    <g>
      <polygon class="cls-1" points="112.49 12.02 112.49 12.01 112.48 12.01 92.04 0 92.04 33.98 112.49 21.96 112.5 21.96 112.5 12.02 112.49 12.02"/>
      <polygon class="cls-1" points="51.15 58.01 63.92 50.5 63.92 35.74 71.59 31.25 71.59 12.01 51.15 0 51.15 58.01"/>
      <polygon class="cls-1" points="10.22 .01 10.22 82.05 23.01 74.54 23.01 40.55 30.67 36.05 30.67 12.02 30.67 12.01 30.65 12.01 10.22 .01"/>
      <g>
        <polygon class="cls-2" points="76.7 28.23 76.69 28.24 76.69 43 86.93 36.98 86.93 34.25 76.7 28.23"/>
        <polygon class="cls-2" points="35.79 67.02 46.02 61.02 46.02 39.06 35.79 33.05 35.79 67.02"/>
        <polygon class="cls-2" points="0 88.05 5.1 85.06 5.1 70.31 0 73.31 0 88.05"/>
      </g>
    </g>
  </g>
</svg>