<?xml version="1.0" encoding="UTF-8"?>
<svg id="Layer_2" data-name="Layer 2" xmlns="http://www.w3.org/2000/svg" xmlns:xlink="http://www.w3.org/1999/xlink" viewBox="0 0 464 464">
  <defs>
    <style>
      .cls-1 {
        clip-path: url(#clippath-2);
      }

      .cls-2 {
        clip-path: url(#clippath-6);
      }

      .cls-3 {
        fill: none;
      }

      .cls-3, .cls-4 {
        stroke-width: 0px;
      }

      .cls-5 {
        clip-path: url(#clippath-1);
      }

      .cls-6 {
        clip-path: url(#clippath-4);
      }

      .cls-4 {
        fill: #18417e;
      }

      .cls-7 {
        clip-path: url(#clippath);
      }

      .cls-8 {
        clip-path: url(#clippath-3);
      }

      .cls-9 {
        clip-path: url(#clippath-5);
      }
    </style>
    <clipPath id="clippath">
      <path class="cls-3" d="m320,8c0,4.42,3.58,8,8,8h0c-4.42,0-8,3.58-8,8h0c0,4.42,3.58,8,8,8h0c4.42,0,8-3.58,8-8h0c0-4.42-3.58-8-8-8h0c4.42,0,8-3.58,8-8h0c0-4.42-3.58-8-8-8h0c-4.42,0-8,3.58-8,8Zm-48,0c0,4.42,3.58,8,8,8h0c4.42,0,8-3.58,8-8h0c0-4.42-3.58-8-8-8h0c-4.42,0-8,3.58-8,8Zm-16,0c0,4.42,3.58,8,8,8h0c4.42,0,8-3.58,8-8h0c0-4.42-3.58-8-8-8h0c-4.42,0-8,3.58-8,8Zm-16,0c0,4.42,3.58,8,8,8h0c-4.42,0-8,3.58-8,8h0c0,4.42,3.58,8,8,8h0c4.42,0,8-3.58,8-8h0c0-4.42-3.58-8-8-8h0c4.42,0,8-3.58,8-8h0c0-4.42-3.58-8-8-8h0c-4.42,0-8,3.58-8,8Zm-96,0c0,4.42,3.58,8,8,8h0c4.42,0,8-3.58,8-8h0c0-4.42-3.58-8-8-8h0c-4.42,0-8,3.58-8,8Zm80,16c0,4.42,3.58,8,8,8h0c-4.42,0-8,3.58-8,8h0c0,4.42,3.58,8,8,8h0c4.42,0,8-3.58,8-8h0c0-4.42-3.58-8-8-8h0c4.42,0,8-3.58,8-8h0c0-4.42-3.58-8-8-8h0c-4.42,0-8,3.58-8,8Zm-16,0c0,4.42,3.58,8,8,8h0c4.42,0,8-3.58,8-8h0c0-4.42-3.58-8-8-8h0c-4.42,0-8,3.58-8,8Zm-16,0c0,4.42,3.58,8,8,8h0c4.42,0,8-3.58,8-8h0c0-4.42-3.58-8-8-8h0c-4.42,0-8,3.58-8,8Zm-16,0c0,4.42,3.58,8,8,8h0c-4.42,0-8,3.58-8,8h0c0,4.42,3.58,8,8,8h0c4.42,0,8-3.58,8-8h0c0-4.42-3.58-8-8-8h0c4.42,0,8-3.58,8-8h0c0-4.42-3.58-8-8-8h0c-4.42,0-8,3.58-8,8Zm-48,0c0,4.42,3.58,8,8,8h0c4.42,0,8-3.58,8-8h0c0-4.42-3.58-8-8-8h0c-4.42,0-8,3.58-8,8Zm160,16c0,4.42,3.58,8,8,8h0c4.42,0,8-3.58,8-8h0c0-4.42-3.58-8-8-8h0c-4.42,0-8,3.58-8,8Zm-128,0c0,4.42,3.58,8,8,8h0c4.42,0,8-3.58,8-8h0c0-4.42-3.58-8-8-8h0c-4.42,0-8,3.58-8,8Zm-16,0c0,4.42,3.58,8,8,8h0c4.42,0,8-3.58,8-8h0c0-4.42-3.58-8-8-8h0c-4.42,0-8,3.58-8,8Zm128,16c0,4.42,3.58,8,8,8h0c-4.42,0-8,3.58-8,8h0c0,4.42,3.58,8,8,8h0c4.42,0,8-3.58,8-8h0c0-4.42-3.58-8-8-8h0c4.42,0,8-3.58,8-8h0c0-4.42-3.58-8-8-8h0c-4.42,0-8,3.58-8,8Zm-16,0c0,4.42,3.58,8,8,8h0c4.42,0,8-3.58,8-8h0c0-4.42-3.58-8-8-8h0c-4.42,0-8,3.58-8,8Zm-16,0c0,4.42,3.58,8,8,8h0c-4.42,0-8,3.58-8,8h0c0,4.42,3.58,8,8,8h0c4.42,0,8-3.58,8-8h0c0-4.42-3.58-8-8-8h0c4.42,0,8-3.58,8-8h0c0-4.42-3.58-8-8-8h0c-4.42,0-8,3.58-8,8Zm-32,0c0,4.42,3.58,8,8,8h0c-4.42,0-8,3.58-8,8h0c0,4.42,3.58,8,8,8h0c-4.42,0-8,3.58-8,8h0c0,4.42,3.58,8,8,8h0c4.42,0,8-3.58,8-8h0c0-4.42-3.58-8-8-8h0c4.42,0,8-3.58,8-8h0c0-4.42-3.58-8-8-8h0c4.42,0,8-3.58,8-8h0c0-4.42-3.58-8-8-8h0c-4.42,0-8,3.58-8,8Zm112,16c0,4.42,3.58,8,8,8h0c-4.42,0-8,3.58-8,8h0c0,4.42,3.58,8,8,8h0c-4.42,0-8,3.58-8,8h0c0,4.42,3.58,8,8,8h0c4.42,0,8-3.58,8-8h0c0-4.42-3.58-8-8-8h0c4.42,0,8-3.58,8-8h0c0-4.42-3.58-8-8-8h0c4.42,0,8-3.58,8-8h0c0-4.42-3.58-8-8-8h0c-4.42,0-8,3.58-8,8Zm-16,0c0,4.42,3.58,8,8,8h0c-4.42,0-8,3.58-8,8h0c0,4.42,3.58,8,8,8h0c4.42,0,8-3.58,8-8h0c0-4.42-3.58-8-8-8h0c4.42,0,8-3.58,8-8h0c0-4.42-3.58-8-8-8h0c-4.42,0-8,3.58-8,8Zm-16,0c0,4.42,3.58,8,8,8h0c4.42,0,8-3.58,8-8h0c0-4.42-3.58-8-8-8h0c-4.42,0-8,3.58-8,8Zm-64,0c0,4.42,3.58,8,8,8h0c4.42,0,8-3.58,8-8h0c0-4.42-3.58-8-8-8h0c-4.42,0-8,3.58-8,8Zm-32,0c0,4.42,3.58,8,8,8h0c4.42,0,8-3.58,8-8h0c0-4.42-3.58-8-8-8h0c-4.42,0-8,3.58-8,8Zm-16,0c0,4.42,3.58,8,8,8h0c-4.42,0-8,3.58-8,8h0c0,4.42,3.58,8,8,8h0c4.42,0,8-3.58,8-8h0c0-4.42-3.58-8-8-8h0c4.42,0,8-3.58,8-8h0c0-4.42-3.58-8-8-8h0c-4.42,0-8,3.58-8,8Zm-16,0c0,4.42,3.58,8,8,8h0c4.42,0,8-3.58,8-8h0c0-4.42-3.58-8-8-8h0c-4.42,0-8,3.58-8,8Zm-32,0c0,4.42,3.58,8,8,8h0c4.42,0,8-3.58,8-8h0c0-4.42-3.58-8-8-8h0c-4.42,0-8,3.58-8,8Zm128,16c0,4.42,3.58,8,8,8h0c-4.42,0-8,3.58-8,8h0c0,4.42,3.58,8,8,8h0c-4.42,0-8,3.58-8,8h0c0,4.42,3.58,8,8,8h0c4.42,0,8-3.58,8-8h0c0-4.42-3.58-8-8-8h0c4.42,0,8-3.58,8-8h0c0-4.42-3.58-8-8-8h0c4.42,0,8-3.58,8-8h0c0-4.42-3.58-8-8-8h0c-4.42,0-8,3.58-8,8Zm32,16c0,4.42,3.58,8,8,8h0c4.42,0,8-3.58,8-8h0c0-4.42-3.58-8-8-8h0c-4.42,0-8,3.58-8,8Zm-64,0c0,4.42,3.58,8,8,8h0c4.42,0,8-3.58,8-8h0c0-4.42-3.58-8-8-8h0c-4.42,0-8,3.58-8,8Zm-32,0c0,4.42,3.58,8,8,8h0c4.42,0,8-3.58,8-8h0c0-4.42-3.58-8-8-8h0c-4.42,0-8,3.58-8,8Zm-32,0c0,4.42,3.58,8,8,8h0c4.42,0,8-3.58,8-8h0c0-4.42-3.58-8-8-8h0c-4.42,0-8,3.58-8,8Zm-32,0c0,4.42,3.58,8,8,8h0c4.42,0,8-3.58,8-8h0c0-4.42-3.58-8-8-8h0c-4.42,0-8,3.58-8,8Zm144,16c0,4.42,3.58,8,8,8h0c4.42,0,8-3.58,8-8h0c0-4.42-3.58-8-8-8h0c-4.42,0-8,3.58-8,8Zm-32,0c0,4.42,3.58,8,8,8h0c-4.42,0-8,3.58-8,8h0c0,4.42,3.58,8,8,8h0c-4.42,0-8,3.58-8,8h0c0,4.42,3.58,8,8,8h0c-4.42,0-8,3.58-8,8h0c0,4.42,3.58,8,8,8h0c-4.42,0-8,3.58-8,8h0c0,4.42,3.58,8,8,8h0c-4.42,0-8,3.58-8,8h0c0,4.42,3.58,8,8,8h0c-4.42,0-8,3.58-8,8h0c0,4.42,3.58,8,8,8h0c-4.42,0-8,3.58-8,8h0c0,4.42,3.58,8,8,8h0c4.42,0,8-3.58,8-8h0c0-4.42-3.58-8-8-8h0c4.42,0,8-3.58,8-8h0c0-4.42-3.58-8-8-8h0c4.42,0,8-3.58,8-8h0c0-4.42-3.58-8-8-8h0c4.42,0,8-3.58,8-8h0c0-4.42-3.58-8-8-8h0c4.42,0,8-3.58,8-8h0c0-4.42-3.58-8-8-8h0c4.42,0,8-3.58,8-8h0c0-4.42-3.58-8-8-8h0c4.42,0,8-3.58,8-8h0c0-4.42-3.58-8-8-8h0c4.42,0,8-3.58,8-8h0c0-4.42-3.58-8-8-8h0c-4.42,0-8,3.58-8,8Zm-32,0c0,4.42,3.58,8,8,8h0c-4.42,0-8,3.58-8,8h0c0,4.42,3.58,8,8,8h0c-4.42,0-8,3.58-8,8h0c0,4.42,3.58,8,8,8h0c-4.42,0-8,3.58-8,8h0c0,4.42,3.58,8,8,8h0c4.42,0,8-3.58,8-8h0c0-4.42-3.58-8-8-8h0c4.42,0,8-3.58,8-8h0c0-4.42-3.58-8-8-8h0c4.42,0,8-3.58,8-8h0c0-4.42-3.58-8-8-8h0c4.42,0,8-3.58,8-8h0c0-4.42-3.58-8-8-8h0c-4.42,0-8,3.58-8,8Zm-64,0c0,4.42,3.58,8,8,8h0c4.42,0,8-3.58,8-8h0c0-4.42-3.58-8-8-8h0c-4.42,0-8,3.58-8,8Zm288,16c0,4.42,3.58,8,8,8h0c-4.42,0-8,3.58-8,8h0c0,4.42,3.58,8,8,8h0c-4.42,0-8,3.58-8,8h0c0,4.42,3.58,8,8,8h0c4.42,0,8-3.58,8-8h0c0-4.42-3.58-8-8-8h0c4.42,0,8-3.58,8-8h0c0-4.42-3.58-8-8-8h0c4.42,0,8-3.58,8-8h0c0-4.42-3.58-8-8-8h0c-4.42,0-8,3.58-8,8Zm-48,0c0,4.42,3.58,8,8,8h0c4.42,0,8-3.58,8-8h0c0-4.42-3.58-8-8-8h0c-4.42,0-8,3.58-8,8Zm-48,0c0,4.42,3.58,8,8,8h0c4.42,0,8-3.58,8-8h0c0-4.42-3.58-8-8-8h0c-4.42,0-8,3.58-8,8Zm-16,0c0,4.42,3.58,8,8,8h0c-4.42,0-8,3.58-8,8h0c0,4.42,3.58,8,8,8h0c4.42,0,8-3.58,8-8h0c0-4.42-3.58-8-8-8h0c4.42,0,8-3.58,8-8h0c0-4.42-3.58-8-8-8h0c-4.42,0-8,3.58-8,8Zm-16,0c0,4.42,3.58,8,8,8h0c-4.42,0-8,3.58-8,8h0c0,4.42,3.58,8,8,8h0c-4.42,0-8,3.58-8,8h0c0,4.42,3.58,8,8,8h0c-4.42,0-8,3.58-8,8h0c0,4.42,3.58,8,8,8h0c4.42,0,8-3.58,8-8h0c0-4.42-3.58-8-8-8h0c4.42,0,8-3.58,8-8h0c0-4.42-3.58-8-8-8h0c4.42,0,8-3.58,8-8h0c0-4.42-3.58-8-8-8h0c4.42,0,8-3.58,8-8h0c0-4.42-3.58-8-8-8h0c-4.42,0-8,3.58-8,8Zm-16,0c0,4.42,3.58,8,8,8h0c-4.42,0-8,3.58-8,8h0c0,4.42,3.58,8,8,8h0c4.42,0,8-3.58,8-8h0c0-4.42-3.58-8-8-8h0c4.42,0,8-3.58,8-8h0c0-4.42-3.58-8-8-8h0c-4.42,0-8,3.58-8,8Zm-112,0c0,4.42,3.58,8,8,8h0c4.42,0,8-3.58,8-8h0c0-4.42-3.58-8-8-8h0c-4.42,0-8,3.58-8,8Zm-48,0c0,4.42,3.58,8,8,8h0c4.42,0,8-3.58,8-8h0c0-4.42-3.58-8-8-8h0c-4.42,0-8,3.58-8,8Zm-32,0c0,4.42,3.58,8,8,8h0c4.42,0,8-3.58,8-8h0c0-4.42-3.58-8-8-8h0c-4.42,0-8,3.58-8,8Zm-16,0c0,4.42,3.58,8,8,8h0c-4.42,0-8,3.58-8,8h0c0,4.42,3.58,8,8,8h0c4.42,0,8-3.58,8-8h0c0-4.42-3.58-8-8-8h0c4.42,0,8-3.58,8-8h0c0-4.42-3.58-8-8-8h0c-4.42,0-8,3.58-8,8Zm-16,0c0,4.42,3.58,8,8,8h0c-4.42,0-8,3.58-8,8h0c0,4.42,3.58,8,8,8h0c-4.42,0-8,3.58-8,8h0c0,4.42,3.58,8,8,8h0c-4.42,0-8,3.58-8,8h0c0,4.42,3.58,8,8,8h0c4.42,0,8-3.58,8-8h0c0-4.42-3.58-8-8-8h0c4.42,0,8-3.58,8-8h0c0-4.42-3.58-8-8-8h0c4.42,0,8-3.58,8-8h0c0-4.42-3.58-8-8-8h0c4.42,0,8-3.58,8-8h0c0-4.42-3.58-8-8-8h0c-4.42,0-8,3.58-8,8Zm-32,0c0,4.42,3.58,8,8,8h0c-4.42,0-8,3.58-8,8h0c0,4.42,3.58,8,8,8h0c4.42,0,8-3.58,8-8h0c0-4.42-3.58-8-8-8h0c4.42,0,8-3.58,8-8h0c0-4.42-3.58-8-8-8h0c-4.42,0-8,3.58-8,8Zm416,16c0,4.42,3.58,8,8,8h0c4.42,0,8-3.58,8-8h0c0-4.42-3.58-8-8-8h0c-4.42,0-8,3.58-8,8Zm-96,0c0,4.42,3.58,8,8,8h0c-4.42,0-8,3.58-8,8h0c0,4.42,3.58,8,8,8h0c4.42,0,8-3.58,8-8h0c0-4.42-3.58-8-8-8h0c4.42,0,8-3.58,8-8h0c0-4.42-3.58-8-8-8h0c-4.42,0-8,3.58-8,8Zm-96,0c0,4.42,3.58,8,8,8h0c4.42,0,8-3.58,8-8h0c0-4.42-3.58-8-8-8h0c-4.42,0-8,3.58-8,8Zm-32,0c0,4.42,3.58,8,8,8h0c4.42,0,8-3.58,8-8h0c0-4.42-3.58-8-8-8h0c-4.42,0-8,3.58-8,8Zm-80,0c0,4.42,3.58,8,8,8h0c4.42,0,8-3.58,8-8h0c0-4.42-3.58-8-8-8h0c-4.42,0-8,3.58-8,8Zm-32,0c0,4.42,3.58,8,8,8h0c-4.42,0-8,3.58-8,8h0c0,4.42,3.58,8,8,8h0c4.42,0,8-3.58,8-8h0c0-4.42-3.58-8-8-8h0c4.42,0,8-3.58,8-8h0c0-4.42-3.58-8-8-8h0c-4.42,0-8,3.58-8,8Zm-96,0c0,4.42,3.58,8,8,8h0c-4.42,0-8,3.58-8,8h0c0,4.42,3.58,8,8,8h0c4.42,0,8-3.58,8-8h0c0-4.42-3.58-8-8-8h0c4.42,0,8-3.58,8-8h0c0-4.42-3.58-8-8-8h0c-4.42,0-8,3.58-8,8Zm-16,0c0,4.42,3.58,8,8,8h0c-4.42,0-8,3.58-8,8h0c0,4.42,3.58,8,8,8h0c-4.42,0-8,3.58-8,8h0c0,4.42,3.58,8,8,8h0c4.42,0,8-3.58,8-8h0c0-4.42-3.58-8-8-8h0c4.42,0,8-3.58,8-8h0c0-4.42-3.58-8-8-8h0c4.42,0,8-3.58,8-8h0c0-4.42-3.58-8-8-8h0c-4.42,0-8,3.58-8,8Zm400,16c0,4.42,3.58,8,8,8h0c-4.42,0-8,3.58-8,8h0c0,4.42,3.58,8,8,8h0c-4.42,0-8,3.58-8,8h0c0,4.42,3.58,8,8,8h0c4.42,0,8-3.58,8-8h0c0-4.42-3.58-8-8-8h0c4.42,0,8-3.58,8-8h0c0-4.42-3.58-8-8-8h0c4.42,0,8-3.58,8-8h0c0-4.42-3.58-8-8-8h0c-4.42,0-8,3.58-8,8Zm-16,0c0,4.42,3.58,8,8,8h0c-4.42,0-8,3.58-8,8h0c0,4.42,3.58,8,8,8h0c-4.42,0-8,3.58-8,8h0c0,4.42,3.58,8,8,8h0c4.42,0,8-3.58,8-8h0c0-4.42-3.58-8-8-8h0c4.42,0,8-3.58,8-8h0c0-4.42-3.58-8-8-8h0c4.42,0,8-3.58,8-8h0c0-4.42-3.58-8-8-8h0c-4.42,0-8,3.58-8,8Zm-16,0c0,4.42,3.58,8,8,8h0c4.42,0,8-3.58,8-8h0c0-4.42-3.58-8-8-8h0c-4.42,0-8,3.58-8,8Zm-176,0c0,4.42,3.58,8,8,8h0c4.42,0,8-3.58,8-8h0c0-4.42-3.58-8-8-8h0c-4.42,0-8,3.58-8,8Zm-32,0c0,4.42,3.58,8,8,8h0c-4.42,0-8,3.58-8,8h0c0,4.42,3.58,8,8,8h0c4.42,0,8-3.58,8-8h0c0-4.42-3.58-8-8-8h0c4.42,0,8-3.58,8-8h0c0-4.42-3.58-8-8-8h0c-4.42,0-8,3.58-8,8Zm-64,0c0,4.42,3.58,8,8,8h0c4.42,0,8-3.58,8-8h0c0-4.42-3.58-8-8-8h0c-4.42,0-8,3.58-8,8Zm-48,0c0,4.42,3.58,8,8,8h0c-4.42,0-8,3.58-8,8h0c0,4.42,3.58,8,8,8h0c-4.42,0-8,3.58-8,8h0c0,4.42,3.58,8,8,8h0c-4.42,0-8,3.58-8,8h0c0,4.42,3.58,8,8,8h0c-4.42,0-8,3.58-8,8h0c0,4.42,3.58,8,8,8h0c4.42,0,8-3.58,8-8h0c0-4.42-3.58-8-8-8h0c4.42,0,8-3.58,8-8h0c0-4.42-3.58-8-8-8h0c4.42,0,8-3.58,8-8h0c0-4.42-3.58-8-8-8h0c4.42,0,8-3.58,8-8h0c0-4.42-3.58-8-8-8h0c4.42,0,8-3.58,8-8h0c0-4.42-3.58-8-8-8h0c-4.42,0-8,3.58-8,8Zm400,16c0,4.42,3.58,8,8,8h0c4.42,0,8-3.58,8-8h0c0-4.42-3.58-8-8-8h0c-4.42,0-8,3.58-8,8Zm-176,0c0,4.42,3.58,8,8,8h0c-4.42,0-8,3.58-8,8h0c0,4.42,3.58,8,8,8h0c-4.42,0-8,3.58-8,8h0c0,4.42,3.58,8,8,8h0c4.42,0,8-3.58,8-8h0c0-4.42-3.58-8-8-8h0c4.42,0,8-3.58,8-8h0c0-4.42-3.58-8-8-8h0c4.42,0,8-3.58,8-8h0c0-4.42-3.58-8-8-8h0c-4.42,0-8,3.58-8,8Zm-16,0c0,4.42,3.58,8,8,8h0c4.42,0,8-3.58,8-8h0c0-4.42-3.58-8-8-8h0c-4.42,0-8,3.58-8,8Zm-128,0c0,4.42,3.58,8,8,8h0c4.42,0,8-3.58,8-8h0c0-4.42-3.58-8-8-8h0c-4.42,0-8,3.58-8,8Zm-96,0c0,4.42,3.58,8,8,8h0c-4.42,0-8,3.58-8,8h0c0,4.42,3.58,8,8,8h0c-4.42,0-8,3.58-8,8h0c0,4.42,3.58,8,8,8h0c-4.42,0-8,3.58-8,8h0c0,4.42,3.58,8,8,8h0c-4.42,0-8,3.58-8,8h0c0,4.42,3.58,8,8,8h0c4.42,0,8-3.58,8-8h0c0-4.42-3.58-8-8-8h0c4.42,0,8-3.58,8-8h0c0-4.42-3.58-8-8-8h0c4.42,0,8-3.58,8-8h0c0-4.42-3.58-8-8-8h0c4.42,0,8-3.58,8-8h0c0-4.42-3.58-8-8-8h0c4.42,0,8-3.58,8-8h0c0-4.42-3.58-8-8-8h0c-4.42,0-8,3.58-8,8Zm400,16c0,4.42,3.58,8,8,8h0c4.42,0,8-3.58,8-8h0c0-4.42-3.58-8-8-8h0c-4.42,0-8,3.58-8,8Zm-64,0c0,4.42,3.58,8,8,8h0c-4.42,0-8,3.58-8,8h0c0,4.42,3.58,8,8,8h0c4.42,0,8-3.58,8-8h0c0-4.42-3.58-8-8-8h0c4.42,0,8-3.58,8-8h0c0-4.42-3.58-8-8-8h0c-4.42,0-8,3.58-8,8Zm-16,0c0,4.42,3.58,8,8,8h0c-4.42,0-8,3.58-8,8h0c0,4.42,3.58,8,8,8h0c-4.42,0-8,3.58-8,8h0c0,4.42,3.58,8,8,8h0c-4.42,0-8,3.58-8,8h0c0,4.42,3.58,8,8,8h0c-4.42,0-8,3.58-8,8h0c0,4.42,3.58,8,8,8h0c4.42,0,8-3.58,8-8h0c0-4.42-3.58-8-8-8h0c4.42,0,8-3.58,8-8h0c0-4.42-3.58-8-8-8h0c4.42,0,8-3.58,8-8h0c0-4.42-3.58-8-8-8h0c4.42,0,8-3.58,8-8h0c0-4.42-3.58-8-8-8h0c4.42,0,8-3.58,8-8h0c0-4.42-3.58-8-8-8h0c-4.42,0-8,3.58-8,8Zm-16,0c0,4.42,3.58,8,8,8h0c4.42,0,8-3.58,8-8h0c0-4.42-3.58-8-8-8h0c-4.42,0-8,3.58-8,8Zm-48,0c0,4.42,3.58,8,8,8h0c-4.42,0-8,3.58-8,8h0c0,4.42,3.58,8,8,8h0c4.42,0,8-3.58,8-8h0c0-4.42-3.58-8-8-8h0c4.42,0,8-3.58,8-8h0c0-4.42-3.58-8-8-8h0c-4.42,0-8,3.58-8,8Zm-96,0c0,4.42,3.58,8,8,8h0c4.42,0,8-3.58,8-8h0c0-4.42-3.58-8-8-8h0c-4.42,0-8,3.58-8,8Zm-48,0c0,4.42,3.58,8,8,8h0c4.42,0,8-3.58,8-8h0c0-4.42-3.58-8-8-8h0c-4.42,0-8,3.58-8,8Zm-48,0c0,4.42,3.58,8,8,8h0c4.42,0,8-3.58,8-8h0c0-4.42-3.58-8-8-8h0c-4.42,0-8,3.58-8,8Zm320,16c0,4.42,3.58,8,8,8h0c-4.42,0-8,3.58-8,8h0c0,4.42,3.58,8,8,8h0c-4.42,0-8,3.58-8,8h0c0,4.42,3.58,8,8,8h0c-4.42,0-8,3.58-8,8h0c0,4.42,3.58,8,8,8h0c4.42,0,8-3.58,8-8h0c0-4.42-3.58-8-8-8h0c4.42,0,8-3.58,8-8h0c0-4.42-3.58-8-8-8h0c4.42,0,8-3.58,8-8h0c0-4.42-3.58-8-8-8h0c4.42,0,8-3.58,8-8h0c0-4.42-3.58-8-8-8h0c-4.42,0-8,3.58-8,8Zm-96,0c0,4.42,3.58,8,8,8h0c-4.42,0-8,3.58-8,8h0c0,4.42,3.58,8,8,8h0c-4.42,0-8,3.58-8,8h0c0,4.42,3.58,8,8,8h0c4.42,0,8-3.58,8-8h0c0-4.42-3.58-8-8-8h0c4.42,0,8-3.58,8-8h0c0-4.42-3.58-8-8-8h0c4.42,0,8-3.58,8-8h0c0-4.42-3.58-8-8-8h0c-4.42,0-8,3.58-8,8Zm-64,0c0,4.42,3.58,8,8,8h0c4.42,0,8-3.58,8-8h0c0-4.42-3.58-8-8-8h0c-4.42,0-8,3.58-8,8Zm-80,0c0,4.42,3.58,8,8,8h0c4.42,0,8-3.58,8-8h0c0-4.42-3.58-8-8-8h0c-4.42,0-8,3.58-8,8Zm-16,0c0,4.42,3.58,8,8,8h0c4.42,0,8-3.58,8-8h0c0-4.42-3.58-8-8-8h0c-4.42,0-8,3.58-8,8Zm-32,0c0,4.42,3.58,8,8,8h0c-4.42,0-8,3.58-8,8h0c0,4.42,3.58,8,8,8h0c4.42,0,8-3.58,8-8h0c0-4.42-3.58-8-8-8h0c4.42,0,8-3.58,8-8h0c0-4.42-3.58-8-8-8h0c-4.42,0-8,3.58-8,8Zm-64,0c0,4.42,3.58,8,8,8h0c-4.42,0-8,3.58-8,8h0c0,4.42,3.58,8,8,8h0c4.42,0,8-3.58,8-8h0c0-4.42-3.58-8-8-8h0c4.42,0,8-3.58,8-8h0c0-4.42-3.58-8-8-8h0c-4.42,0-8,3.58-8,8Zm384,16c0,4.42,3.58,8,8,8h0c4.42,0,8-3.58,8-8h0c0-4.42-3.58-8-8-8h0c-4.42,0-8,3.58-8,8Zm-16,0c0,4.42,3.58,8,8,8h0c4.42,0,8-3.58,8-8h0c0-4.42-3.58-8-8-8h0c-4.42,0-8,3.58-8,8Zm-32,0c0,4.42,3.58,8,8,8h0c4.42,0,8-3.58,8-8h0c0-4.42-3.58-8-8-8h0c-4.42,0-8,3.58-8,8Zm-16,0c0,4.42,3.58,8,8,8h0c-4.42,0-8,3.58-8,8h0c0,4.42,3.58,8,8,8h0c4.42,0,8-3.58,8-8h0c0-4.42-3.58-8-8-8h0c4.42,0,8-3.58,8-8h0c0-4.42-3.58-8-8-8h0c-4.42,0-8,3.58-8,8Zm-48,0c0,4.42,3.58,8,8,8h0c-4.42,0-8,3.58-8,8h0c0,4.42,3.58,8,8,8h0c-4.42,0-8,3.58-8,8h0c0,4.42,3.58,8,8,8h0c-4.42,0-8,3.58-8,8h0c0,4.42,3.58,8,8,8h0c4.42,0,8-3.58,8-8h0c0-4.42-3.58-8-8-8h0c4.42,0,8-3.58,8-8h0c0-4.42-3.58-8-8-8h0c4.42,0,8-3.58,8-8h0c0-4.42-3.58-8-8-8h0c4.42,0,8-3.58,8-8h0c0-4.42-3.58-8-8-8h0c-4.42,0-8,3.58-8,8Zm-32,0c0,4.42,3.58,8,8,8h0c4.42,0,8-3.58,8-8h0c0-4.42-3.58-8-8-8h0c-4.42,0-8,3.58-8,8Zm-80,0c0,4.42,3.58,8,8,8h0c-4.42,0-8,3.58-8,8h0c0,4.42,3.58,8,8,8h0c-4.42,0-8,3.58-8,8h0c0,4.42,3.58,8,8,8h0c4.42,0,8-3.58,8-8h0c0-4.42-3.58-8-8-8h0c4.42,0,8-3.58,8-8h0c0-4.42-3.58-8-8-8h0c4.42,0,8-3.58,8-8h0c0-4.42-3.58-8-8-8h0c-4.42,0-8,3.58-8,8Zm-16,0c0,4.42,3.58,8,8,8h0c-4.42,0-8,3.58-8,8h0c0,4.42,3.58,8,8,8h0c4.42,0,8-3.58,8-8h0c0-4.42-3.58-8-8-8h0c4.42,0,8-3.58,8-8h0c0-4.42-3.58-8-8-8h0c-4.42,0-8,3.58-8,8Zm-16,0c0,4.42,3.58,8,8,8h0c-4.42,0-8,3.58-8,8h0c0,4.42,3.58,8,8,8h0c-4.42,0-8,3.58-8,8h0c0,4.42,3.58,8,8,8h0c-4.42,0-8,3.58-8,8h0c0,4.42,3.58,8,8,8h0c4.42,0,8-3.58,8-8h0c0-4.42-3.58-8-8-8h0c4.42,0,8-3.58,8-8h0c0-4.42-3.58-8-8-8h0c4.42,0,8-3.58,8-8h0c0-4.42-3.58-8-8-8h0c4.42,0,8-3.58,8-8h0c0-4.42-3.58-8-8-8h0c-4.42,0-8,3.58-8,8Zm-96,0c0,4.42,3.58,8,8,8h0c4.42,0,8-3.58,8-8h0c0-4.42-3.58-8-8-8h0c-4.42,0-8,3.58-8,8Zm-16,0c0,4.42,3.58,8,8,8h0c4.42,0,8-3.58,8-8h0c0-4.42-3.58-8-8-8h0c-4.42,0-8,3.58-8,8Zm-64,0c0,4.42,3.58,8,8,8h0c-4.42,0-8,3.58-8,8h0c0,4.42,3.58,8,8,8h0c4.42,0,8-3.58,8-8h0c0-4.42-3.58-8-8-8h0c4.42,0,8-3.58,8-8h0c0-4.42-3.58-8-8-8h0c-4.42,0-8,3.58-8,8Zm160,16c0,4.42,3.58,8,8,8h0c-4.42,0-8,3.58-8,8h0c0,4.42,3.58,8,8,8h0c-4.42,0-8,3.58-8,8h0c0,4.42,3.58,8,8,8h0c-4.42,0-8,3.58-8,8h0c0,4.42,3.58,8,8,8h0c-4.42,0-8,3.58-8,8h0c0,4.42,3.58,8,8,8h0c-4.42,0-8,3.58-8,8h0c0,4.42,3.58,8,8,8h0c-4.42,0-8,3.58-8,8h0c0,4.42,3.58,8,8,8h0c4.42,0,8-3.58,8-8h0c0-4.42-3.58-8-8-8h0c4.42,0,8-3.58,8-8h0c0-4.42-3.58-8-8-8h0c4.42,0,8-3.58,8-8h0c0-4.42-3.58-8-8-8h0c4.42,0,8-3.58,8-8h0c0-4.42-3.58-8-8-8h0c4.42,0,8-3.58,8-8h0c0-4.42-3.58-8-8-8h0c4.42,0,8-3.58,8-8h0c0-4.42-3.58-8-8-8h0c4.42,0,8-3.58,8-8h0c0-4.42-3.58-8-8-8h0c-4.42,0-8,3.58-8,8Zm-16,0c0,4.42,3.58,8,8,8h0c-4.42,0-8,3.58-8,8h0c0,4.42,3.58,8,8,8h0c4.42,0,8-3.58,8-8h0c0-4.42-3.58-8-8-8h0c4.42,0,8-3.58,8-8h0c0-4.42-3.58-8-8-8h0c-4.42,0-8,3.58-8,8Zm-16,0c0,4.42,3.58,8,8,8h0c4.42,0,8-3.58,8-8h0c0-4.42-3.58-8-8-8h0c-4.42,0-8,3.58-8,8Zm-32,0c0,4.42,3.58,8,8,8h0c-4.42,0-8,3.58-8,8h0c0,4.42,3.58,8,8,8h0c-4.42,0-8,3.58-8,8h0c0,4.42,3.58,8,8,8h0c-4.42,0-8,3.58-8,8h0c0,4.42,3.58,8,8,8h0c4.42,0,8-3.58,8-8h0c0-4.42-3.58-8-8-8h0c4.42,0,8-3.58,8-8h0c0-4.42-3.58-8-8-8h0c4.42,0,8-3.58,8-8h0c0-4.42-3.58-8-8-8h0c4.42,0,8-3.58,8-8h0c0-4.42-3.58-8-8-8h0c-4.42,0-8,3.58-8,8Zm-112,0c0,4.42,3.58,8,8,8h0c-4.42,0-8,3.58-8,8h0c0,4.42,3.58,8,8,8h0c-4.42,0-8,3.58-8,8h0c0,4.42,3.58,8,8,8h0c-4.42,0-8,3.58-8,8h0c0,4.42,3.58,8,8,8h0c4.42,0,8-3.58,8-8h0c0-4.42-3.58-8-8-8h0c4.42,0,8-3.58,8-8h0c0-4.42-3.58-8-8-8h0c4.42,0,8-3.58,8-8h0c0-4.42-3.58-8-8-8h0c4.42,0,8-3.58,8-8h0c0-4.42-3.58-8-8-8h0c-4.42,0-8,3.58-8,8Zm432,16c0,4.42,3.58,8,8,8h0c-4.42,0-8,3.58-8,8h0c0,4.42,3.58,8,8,8h0c4.42,0,8-3.58,8-8h0c0-4.42-3.58-8-8-8h0c4.42,0,8-3.58,8-8h0c0-4.42-3.58-8-8-8h0c-4.42,0-8,3.58-8,8Zm-144,0c0,4.42,3.58,8,8,8h0c-4.42,0-8,3.58-8,8h0c0,4.42,3.58,8,8,8h0c-4.42,0-8,3.58-8,8h0c0,4.42,3.58,8,8,8h0c4.42,0,8-3.58,8-8h0c0-4.42-3.58-8-8-8h0c4.42,0,8-3.58,8-8h0c0-4.42-3.58-8-8-8h0c4.42,0,8-3.58,8-8h0c0-4.42-3.58-8-8-8h0c-4.42,0-8,3.58-8,8Zm-16,0c0,4.42,3.58,8,8,8h0c4.42,0,8-3.58,8-8h0c0-4.42-3.58-8-8-8h0c-4.42,0-8,3.58-8,8Zm-176,0c0,4.42,3.58,8,8,8h0c4.42,0,8-3.58,8-8h0c0-4.42-3.58-8-8-8h0c-4.42,0-8,3.58-8,8Zm-16,0c0,4.42,3.58,8,8,8h0c4.42,0,8-3.58,8-8h0c0-4.42-3.58-8-8-8h0c-4.42,0-8,3.58-8,8Zm-32,0c0,4.42,3.58,8,8,8h0c4.42,0,8-3.58,8-8h0c0-4.42-3.58-8-8-8h0c-4.42,0-8,3.58-8,8Zm400,16c0,4.42,3.58,8,8,8h0c-4.42,0-8,3.58-8,8h0c0,4.42,3.58,8,8,8h0c4.42,0,8-3.58,8-8h0c0-4.42-3.58-8-8-8h0c4.42,0,8-3.58,8-8h0c0-4.42-3.58-8-8-8h0c-4.42,0-8,3.58-8,8Zm-64,0c0,4.42,3.58,8,8,8h0c4.42,0,8-3.58,8-8h0c0-4.42-3.58-8-8-8h0c-4.42,0-8,3.58-8,8Zm-16,0c0,4.42,3.58,8,8,8h0c-4.42,0-8,3.58-8,8h0c0,4.42,3.58,8,8,8h0c-4.42,0-8,3.58-8,8h0c0,4.42,3.58,8,8,8h0c-4.42,0-8,3.58-8,8h0c0,4.42,3.58,8,8,8h0c4.42,0,8-3.58,8-8h0c0-4.42-3.58-8-8-8h0c4.42,0,8-3.58,8-8h0c0-4.42-3.58-8-8-8h0c4.42,0,8-3.58,8-8h0c0-4.42-3.58-8-8-8h0c4.42,0,8-3.58,8-8h0c0-4.42-3.58-8-8-8h0c-4.42,0-8,3.58-8,8Zm-48,0c0,4.42,3.58,8,8,8h0c4.42,0,8-3.58,8-8h0c0-4.42-3.58-8-8-8h0c-4.42,0-8,3.58-8,8Zm-16,0c0,4.42,3.58,8,8,8h0c4.42,0,8-3.58,8-8h0c0-4.42-3.58-8-8-8h0c-4.42,0-8,3.58-8,8Zm-48,0c0,4.42,3.58,8,8,8h0c4.42,0,8-3.58,8-8h0c0-4.42-3.58-8-8-8h0c-4.42,0-8,3.58-8,8Zm-16,0c0,4.42,3.58,8,8,8h0c-4.42,0-8,3.58-8,8h0c0,4.42,3.58,8,8,8h0c4.42,0,8-3.58,8-8h0c0-4.42-3.58-8-8-8h0c4.42,0,8-3.58,8-8h0c0-4.42-3.58-8-8-8h0c-4.42,0-8,3.58-8,8Zm-96,0c0,4.42,3.58,8,8,8h0c-4.42,0-8,3.58-8,8h0c0,4.42,3.58,8,8,8h0c4.42,0,8-3.58,8-8h0c0-4.42-3.58-8-8-8h0c4.42,0,8-3.58,8-8h0c0-4.42-3.58-8-8-8h0c-4.42,0-8,3.58-8,8Zm-16,0c0,4.42,3.58,8,8,8h0c4.42,0,8-3.58,8-8h0c0-4.42-3.58-8-8-8h0c-4.42,0-8,3.58-8,8Zm-96,0c0,4.42,3.58,8,8,8h0c4.42,0,8-3.58,8-8h0c0-4.42-3.58-8-8-8h0c-4.42,0-8,3.58-8,8Zm-16,0c0,4.42,3.58,8,8,8h0c4.42,0,8-3.58,8-8h0c0-4.42-3.58-8-8-8h0c-4.42,0-8,3.58-8,8Zm336,16c0,4.42,3.58,8,8,8h0c-4.42,0-8,3.58-8,8h0c0,4.42,3.58,8,8,8h0c-4.42,0-8,3.58-8,8h0c0,4.42,3.58,8,8,8h0c4.42,0,8-3.58,8-8h0c0-4.42-3.58-8-8-8h0c4.42,0,8-3.58,8-8h0c0-4.42-3.58-8-8-8h0c4.42,0,8-3.58,8-8h0c0-4.42-3.58-8-8-8h0c-4.42,0-8,3.58-8,8Zm-80,0c0,4.42,3.58,8,8,8h0c-4.42,0-8,3.58-8,8h0c0,4.42,3.58,8,8,8h0c4.42,0,8-3.58,8-8h0c0-4.42-3.58-8-8-8h0c4.42,0,8-3.58,8-8h0c0-4.42-3.58-8-8-8h0c-4.42,0-8,3.58-8,8Zm-176,0c0,4.42,3.58,8,8,8h0c4.42,0,8-3.58,8-8h0c0-4.42-3.58-8-8-8h0c-4.42,0-8,3.58-8,8Zm-32,0c0,4.42,3.58,8,8,8h0c4.42,0,8-3.58,8-8h0c0-4.42-3.58-8-8-8h0c-4.42,0-8,3.58-8,8Zm-16,0c0,4.42,3.58,8,8,8h0c4.42,0,8-3.58,8-8h0c0-4.42-3.58-8-8-8h0c-4.42,0-8,3.58-8,8Zm384,16c0,4.42,3.58,8,8,8h0c-4.42,0-8,3.58-8,8h0c0,4.42,3.58,8,8,8h0c-4.42,0-8,3.58-8,8h0c0,4.42,3.58,8,8,8h0c-4.42,0-8,3.58-8,8h0c0,4.42,3.58,8,8,8h0c-4.42,0-8,3.58-8,8h0c0,4.42,3.58,8,8,8h0c4.42,0,8-3.58,8-8h0c0-4.42-3.58-8-8-8h0c4.42,0,8-3.58,8-8h0c0-4.42-3.58-8-8-8h0c4.42,0,8-3.58,8-8h0c0-4.42-3.58-8-8-8h0c4.42,0,8-3.58,8-8h0c0-4.42-3.58-8-8-8h0c4.42,0,8-3.58,8-8h0c0-4.42-3.58-8-8-8h0c-4.42,0-8,3.58-8,8Zm-16,0c0,4.42,3.58,8,8,8h0c-4.42,0-8,3.58-8,8h0c0,4.42,3.58,8,8,8h0c-4.42,0-8,3.58-8,8h0c0,4.42,3.58,8,8,8h0c4.42,0,8-3.58,8-8h0c0-4.42-3.58-8-8-8h0c4.42,0,8-3.58,8-8h0c0-4.42-3.58-8-8-8h0c4.42,0,8-3.58,8-8h0c0-4.42-3.58-8-8-8h0c-4.42,0-8,3.58-8,8Zm-32,0c0,4.42,3.58,8,8,8h0c-4.42,0-8,3.58-8,8h0c0,4.42,3.58,8,8,8h0c-4.42,0-8,3.58-8,8h0c0,4.42,3.58,8,8,8h0c-4.42,0-8,3.58-8,8h0c0,4.42,3.58,8,8,8h0c-4.42,0-8,3.58-8,8h0c0,4.42,3.58,8,8,8h0c-4.42,0-8,3.58-8,8h0c0,4.42,3.58,8,8,8h0c4.42,0,8-3.58,8-8h0c0-4.42-3.58-8-8-8h0c4.42,0,8-3.58,8-8h0c0-4.42-3.58-8-8-8h0c4.42,0,8-3.58,8-8h0c0-4.42-3.58-8-8-8h0c4.42,0,8-3.58,8-8h0c0-4.42-3.58-8-8-8h0c4.42,0,8-3.58,8-8h0c0-4.42-3.58-8-8-8h0c4.42,0,8-3.58,8-8h0c0-4.42-3.58-8-8-8h0c-4.42,0-8,3.58-8,8Zm-48,0c0,4.42,3.58,8,8,8h0c-4.42,0-8,3.58-8,8h0c0,4.42,3.58,8,8,8h0c4.42,0,8-3.58,8-8h0c0-4.42-3.58-8-8-8h0c4.42,0,8-3.58,8-8h0c0-4.42-3.58-8-8-8h0c-4.42,0-8,3.58-8,8Zm-16,0c0,4.42,3.58,8,8,8h0c-4.42,0-8,3.58-8,8h0c0,4.42,3.58,8,8,8h0c-4.42,0-8,3.58-8,8h0c0,4.42,3.58,8,8,8h0c-4.42,0-8,3.58-8,8h0c0,4.42,3.58,8,8,8h0c-4.42,0-8,3.58-8,8h0c0,4.42,3.58,8,8,8h0c-4.42,0-8,3.58-8,8h0c0,4.42,3.58,8,8,8h0c-4.42,0-8,3.58-8,8h0c0,4.42,3.58,8,8,8h0c4.42,0,8-3.58,8-8h0c0-4.42-3.58-8-8-8h0c4.42,0,8-3.58,8-8h0c0-4.42-3.58-8-8-8h0c4.42,0,8-3.58,8-8h0c0-4.42-3.58-8-8-8h0c4.42,0,8-3.58,8-8h0c0-4.42-3.58-8-8-8h0c4.42,0,8-3.58,8-8h0c0-4.42-3.58-8-8-8h0c4.42,0,8-3.58,8-8h0c0-4.42-3.58-8-8-8h0c4.42,0,8-3.58,8-8h0c0-4.42-3.58-8-8-8h0c-4.42,0-8,3.58-8,8Zm-240,0c0,4.42,3.58,8,8,8h0c4.42,0,8-3.58,8-8h0c0-4.42-3.58-8-8-8h0c-4.42,0-8,3.58-8,8Zm-64,0c0,4.42,3.58,8,8,8h0c-4.42,0-8,3.58-8,8h0c0,4.42,3.58,8,8,8h0c4.42,0,8-3.58,8-8h0c0-4.42-3.58-8-8-8h0c4.42,0,8-3.58,8-8h0c0-4.42-3.58-8-8-8h0c-4.42,0-8,3.58-8,8Zm432,16c0,4.42,3.58,8,8,8h0c-4.42,0-8,3.58-8,8h0c0,4.42,3.58,8,8,8h0c4.42,0,8-3.58,8-8h0c0-4.42-3.58-8-8-8h0c4.42,0,8-3.58,8-8h0c0-4.42-3.58-8-8-8h0c-4.42,0-8,3.58-8,8Zm-144,0c0,4.42,3.58,8,8,8h0c4.42,0,8-3.58,8-8h0c0-4.42-3.58-8-8-8h0c-4.42,0-8,3.58-8,8Zm-64,0c0,4.42,3.58,8,8,8h0c-4.42,0-8,3.58-8,8h0c0,4.42,3.58,8,8,8h0c4.42,0,8-3.58,8-8h0c0-4.42-3.58-8-8-8h0c4.42,0,8-3.58,8-8h0c0-4.42-3.58-8-8-8h0c-4.42,0-8,3.58-8,8Zm-48,0c0,4.42,3.58,8,8,8h0c4.42,0,8-3.58,8-8h0c0-4.42-3.58-8-8-8h0c-4.42,0-8,3.58-8,8Zm-32,0c0,4.42,3.58,8,8,8h0c-4.42,0-8,3.58-8,8h0c0,4.42,3.58,8,8,8h0c4.42,0,8-3.58,8-8h0c0-4.42-3.58-8-8-8h0c4.42,0,8-3.58,8-8h0c0-4.42-3.58-8-8-8h0c-4.42,0-8,3.58-8,8Zm-32,0c0,4.42,3.58,8,8,8h0c-4.42,0-8,3.58-8,8h0c0,4.42,3.58,8,8,8h0c4.42,0,8-3.58,8-8h0c0-4.42-3.58-8-8-8h0c4.42,0,8-3.58,8-8h0c0-4.42-3.58-8-8-8h0c-4.42,0-8,3.58-8,8Zm-32,0c0,4.42,3.58,8,8,8h0c4.42,0,8-3.58,8-8h0c0-4.42-3.58-8-8-8h0c-4.42,0-8,3.58-8,8Zm-64,0c0,4.42,3.58,8,8,8h0c4.42,0,8-3.58,8-8h0c0-4.42-3.58-8-8-8h0c-4.42,0-8,3.58-8,8Zm224,16c0,4.42,3.58,8,8,8h0c4.42,0,8-3.58,8-8h0c0-4.42-3.58-8-8-8h0c-4.42,0-8,3.58-8,8Zm-32,0c0,4.42,3.58,8,8,8h0c-4.42,0-8,3.58-8,8h0c0,4.42,3.58,8,8,8h0c4.42,0,8-3.58,8-8h0c0-4.42-3.58-8-8-8h0c4.42,0,8-3.58,8-8h0c0-4.42-3.58-8-8-8h0c-4.42,0-8,3.58-8,8Zm-80,0c0,4.42,3.58,8,8,8h0c-4.42,0-8,3.58-8,8h0c0,4.42,3.58,8,8,8h0c-4.42,0-8,3.58-8,8h0c0,4.42,3.58,8,8,8h0c-4.42,0-8,3.58-8,8h0c0,4.42,3.58,8,8,8h0c4.42,0,8-3.58,8-8h0c0-4.42-3.58-8-8-8h0c4.42,0,8-3.58,8-8h0c0-4.42-3.58-8-8-8h0c4.42,0,8-3.58,8-8h0c0-4.42-3.58-8-8-8h0c4.42,0,8-3.58,8-8h0c0-4.42-3.58-8-8-8h0c-4.42,0-8,3.58-8,8Zm208,16c0,4.42,3.58,8,8,8h0c4.42,0,8-3.58,8-8h0c0-4.42-3.58-8-8-8h0c-4.42,0-8,3.58-8,8Zm-80,0c0,4.42,3.58,8,8,8h0c-4.42,0-8,3.58-8,8h0c0,4.42,3.58,8,8,8h0c-4.42,0-8,3.58-8,8h0c0,4.42,3.58,8,8,8h0c4.42,0,8-3.58,8-8h0c0-4.42-3.58-8-8-8h0c4.42,0,8-3.58,8-8h0c0-4.42-3.58-8-8-8h0c4.42,0,8-3.58,8-8h0c0-4.42-3.58-8-8-8h0c-4.42,0-8,3.58-8,8Zm-64,0c0,4.42,3.58,8,8,8h0c4.42,0,8-3.58,8-8h0c0-4.42-3.58-8-8-8h0c-4.42,0-8,3.58-8,8Zm192,16c0,4.42,3.58,8,8,8h0c4.42,0,8-3.58,8-8h0c0-4.42-3.58-8-8-8h0c-4.42,0-8,3.58-8,8Zm-96,0c0,4.42,3.58,8,8,8h0c4.42,0,8-3.58,8-8h0c0-4.42-3.58-8-8-8h0c-4.42,0-8,3.58-8,8Zm-64,0c0,4.42,3.58,8,8,8h0c4.42,0,8-3.58,8-8h0c0-4.42-3.58-8-8-8h0c-4.42,0-8,3.58-8,8Zm-48,0c0,4.42,3.58,8,8,8h0c4.42,0,8-3.58,8-8h0c0-4.42-3.58-8-8-8h0c-4.42,0-8,3.58-8,8Zm-16,0c0,4.42,3.58,8,8,8h0c4.42,0,8-3.58,8-8h0c0-4.42-3.58-8-8-8h0c-4.42,0-8,3.58-8,8Zm-48,0c0,4.42,3.58,8,8,8h0c-4.42,0-8,3.58-8,8h0c0,4.42,3.58,8,8,8h0c4.42,0,8-3.58,8-8h0c0-4.42-3.58-8-8-8h0c4.42,0,8-3.58,8-8h0c0-4.42-3.58-8-8-8h0c-4.42,0-8,3.58-8,8Zm320,16c0,4.42,3.58,8,8,8h0c4.42,0,8-3.58,8-8h0c0-4.42-3.58-8-8-8h0c-4.42,0-8,3.58-8,8Zm-80,0c0,4.42,3.58,8,8,8h0c-4.42,0-8,3.58-8,8h0c0,4.42,3.58,8,8,8h0c4.42,0,8-3.58,8-8h0c0-4.42-3.58-8-8-8h0c4.42,0,8-3.58,8-8h0c0-4.42-3.58-8-8-8h0c-4.42,0-8,3.58-8,8Zm-16,0c0,4.42,3.58,8,8,8h0c4.42,0,8-3.58,8-8h0c0-4.42-3.58-8-8-8h0c-4.42,0-8,3.58-8,8Zm-16,0c0,4.42,3.58,8,8,8h0c4.42,0,8-3.58,8-8h0c0-4.42-3.58-8-8-8h0c-4.42,0-8,3.58-8,8Zm-48,0c0,4.42,3.58,8,8,8h0c-4.42,0-8,3.58-8,8h0c0,4.42,3.58,8,8,8h0c4.42,0,8-3.58,8-8h0c0-4.42-3.58-8-8-8h0c4.42,0,8-3.58,8-8h0c0-4.42-3.58-8-8-8h0c-4.42,0-8,3.58-8,8Zm-64,0c0,4.42,3.58,8,8,8h0c4.42,0,8-3.58,8-8h0c0-4.42-3.58-8-8-8h0c-4.42,0-8,3.58-8,8Zm-16,0c0,4.42,3.58,8,8,8h0c4.42,0,8-3.58,8-8h0c0-4.42-3.58-8-8-8h0c-4.42,0-8,3.58-8,8Zm224,16c0,4.42,3.58,8,8,8h0c4.42,0,8-3.58,8-8h0c0-4.42-3.58-8-8-8h0c-4.42,0-8,3.58-8,8Zm-16,0c0,4.42,3.58,8,8,8h0c4.42,0,8-3.58,8-8h0c0-4.42-3.58-8-8-8h0c-4.42,0-8,3.58-8,8Zm-16,0c0,4.42,3.58,8,8,8h0c-4.42,0-8,3.58-8,8h0c0,4.42,3.58,8,8,8h0c-4.42,0-8,3.58-8,8h0c0,4.42,3.58,8,8,8h0c4.42,0,8-3.58,8-8h0c0-4.42-3.58-8-8-8h0c4.42,0,8-3.58,8-8h0c0-4.42-3.58-8-8-8h0c4.42,0,8-3.58,8-8h0c0-4.42-3.58-8-8-8h0c-4.42,0-8,3.58-8,8Zm-96,0c0,4.42,3.58,8,8,8h0c4.42,0,8-3.58,8-8h0c0-4.42-3.58-8-8-8h0c-4.42,0-8,3.58-8,8Zm-64,0c0,4.42,3.58,8,8,8h0c4.42,0,8-3.58,8-8h0c0-4.42-3.58-8-8-8h0c-4.42,0-8,3.58-8,8Zm-48,0c0,4.42,3.58,8,8,8h0c4.42,0,8-3.58,8-8h0c0-4.42-3.58-8-8-8h0c-4.42,0-8,3.58-8,8Zm-16,0c0,4.42,3.58,8,8,8h0c4.42,0,8-3.58,8-8h0c0-4.42-3.58-8-8-8h0c-4.42,0-8,3.58-8,8Zm-16,0c0,4.42,3.58,8,8,8h0c-4.42,0-8,3.58-8,8h0c0,4.42,3.58,8,8,8h0c4.42,0,8-3.58,8-8h0c0-4.42-3.58-8-8-8h0c4.42,0,8-3.58,8-8h0c0-4.42-3.58-8-8-8h0c-4.42,0-8,3.58-8,8Zm176,16c0,4.42,3.58,8,8,8h0c4.42,0,8-3.58,8-8h0c0-4.42-3.58-8-8-8h0c-4.42,0-8,3.58-8,8Zm-128,0c0,4.42,3.58,8,8,8h0c4.42,0,8-3.58,8-8h0c0-4.42-3.58-8-8-8h0c-4.42,0-8,3.58-8,8Zm-80,0c0,4.42,3.58,8,8,8h0c4.42,0,8-3.58,8-8h0c0-4.42-3.58-8-8-8h0c-4.42,0-8,3.58-8,8Zm320,16c0,4.42,3.58,8,8,8h0c4.42,0,8-3.58,8-8h0c0-4.42-3.58-8-8-8h0c-4.42,0-8,3.58-8,8Zm-16,0c0,4.42,3.58,8,8,8h0c-4.42,0-8,3.58-8,8h0c0,4.42,3.58,8,8,8h0c4.42,0,8-3.58,8-8h0c0-4.42-3.58-8-8-8h0c4.42,0,8-3.58,8-8h0c0-4.42-3.58-8-8-8h0c-4.42,0-8,3.58-8,8Zm-16,0c0,4.42,3.58,8,8,8h0c-4.42,0-8,3.58-8,8h0c0,4.42,3.58,8,8,8h0c4.42,0,8-3.58,8-8h0c0-4.42-3.58-8-8-8h0c4.42,0,8-3.58,8-8h0c0-4.42-3.58-8-8-8h0c-4.42,0-8,3.58-8,8Zm-32,0c0,4.42,3.58,8,8,8h0c4.42,0,8-3.58,8-8h0c0-4.42-3.58-8-8-8h0c-4.42,0-8,3.58-8,8Zm-64,0c0,4.42,3.58,8,8,8h0c-4.42,0-8,3.58-8,8h0c0,4.42,3.58,8,8,8h0c4.42,0,8-3.58,8-8h0c0-4.42-3.58-8-8-8h0c4.42,0,8-3.58,8-8h0c0-4.42-3.58-8-8-8h0c-4.42,0-8,3.58-8,8Zm-64,0c0,4.42,3.58,8,8,8h0c4.42,0,8-3.58,8-8h0c0-4.42-3.58-8-8-8h0c-4.42,0-8,3.58-8,8Zm-32,0c0,4.42,3.58,8,8,8h0c-4.42,0-8,3.58-8,8h0c0,4.42,3.58,8,8,8h0c4.42,0,8-3.58,8-8h0c0-4.42-3.58-8-8-8h0c4.42,0,8-3.58,8-8h0c0-4.42-3.58-8-8-8h0c-4.42,0-8,3.58-8,8Zm-48,0c0,4.42,3.58,8,8,8h0c-4.42,0-8,3.58-8,8h0c0,4.42,3.58,8,8,8h0c4.42,0,8-3.58,8-8h0c0-4.42-3.58-8-8-8h0c4.42,0,8-3.58,8-8h0c0-4.42-3.58-8-8-8h0c-4.42,0-8,3.58-8,8Zm-32,0c0,4.42,3.58,8,8,8h0c-4.42,0-8,3.58-8,8h0c0,4.42,3.58,8,8,8h0c4.42,0,8-3.58,8-8h0c0-4.42-3.58-8-8-8h0c4.42,0,8-3.58,8-8h0c0-4.42-3.58-8-8-8h0c-4.42,0-8,3.58-8,8Zm224,16c0,4.42,3.58,8,8,8h0c4.42,0,8-3.58,8-8h0c0-4.42-3.58-8-8-8h0c-4.42,0-8,3.58-8,8Zm-16,0c0,4.42,3.58,8,8,8h0c4.42,0,8-3.58,8-8h0c0-4.42-3.58-8-8-8h0c-4.42,0-8,3.58-8,8Zm-16,0c0,4.42,3.58,8,8,8h0c4.42,0,8-3.58,8-8h0c0-4.42-3.58-8-8-8h0c-4.42,0-8,3.58-8,8Zm-48,0c0,4.42,3.58,8,8,8h0c4.42,0,8-3.58,8-8h0c0-4.42-3.58-8-8-8h0c-4.42,0-8,3.58-8,8Zm-16,0c0,4.42,3.58,8,8,8h0c4.42,0,8-3.58,8-8h0c0-4.42-3.58-8-8-8h0c-4.42,0-8,3.58-8,8Zm-32,0c0,4.42,3.58,8,8,8h0c4.42,0,8-3.58,8-8h0c0-4.42-3.58-8-8-8h0c-4.42,0-8,3.58-8,8Zm-32,0c0,4.42,3.58,8,8,8h0c4.42,0,8-3.58,8-8h0c0-4.42-3.58-8-8-8h0c-4.42,0-8,3.58-8,8Zm-16,0c0,4.42,3.58,8,8,8h0c4.42,0,8-3.58,8-8h0c0-4.42-3.58-8-8-8h0c-4.42,0-8,3.58-8,8Zm-32,0c0,4.42,3.58,8,8,8h0c4.42,0,8-3.58,8-8h0c0-4.42-3.58-8-8-8h0c-4.42,0-8,3.58-8,8Z"/>
    </clipPath>
    <clipPath id="clippath-1">
      <path class="cls-3" d="m56,0C25.07.03.02,25.12.05,56.05c.03,30.93,25.12,55.98,56.05,55.95s55.98-25.12,55.95-56.05C112.02,25.06,86.99.03,56.1,0h-.1Zm0,16c22.09.03,39.98,17.96,39.95,40.05-.03,22.09-17.96,39.98-40.05,39.95-22.09-.03-39.98-17.96-39.95-40.05.03-22.05,17.9-39.92,39.95-39.95h.1Z"/>
    </clipPath>
    <clipPath id="clippath-2">
      <circle class="cls-3" cx="56" cy="56" r="24"/>
    </clipPath>
    <clipPath id="clippath-3">
      <path class="cls-3" d="m464,56c-.03-30.93-25.12-55.98-56.05-55.95-30.93.03-55.98,25.12-55.95,56.05.03,30.93,25.12,55.98,56.05,55.95,30.89-.03,55.92-25.06,55.95-55.95v-.1Zm-16,0c-.03,22.09-17.96,39.98-40.05,39.95-22.09-.03-39.98-17.96-39.95-40.05s17.96-39.98,40.05-39.95c22.05.03,39.92,17.9,39.95,39.95v.1Z"/>
    </clipPath>
    <clipPath id="clippath-4">
      <circle class="cls-3" cx="408" cy="56" r="24"/>
    </clipPath>
    <clipPath id="clippath-5">
      <path class="cls-3" d="m0,408c.03,30.93,25.12,55.98,56.05,55.95,30.93-.03,55.98-25.12,55.95-56.05-.03-30.93-25.12-55.98-56.05-55.95-30.89.03-55.92,25.06-55.95,55.95v.1Zm16,0c.03-22.09,17.96-39.98,40.05-39.95,22.09.03,39.98,17.96,39.95,40.05s-17.96,39.98-40.05,39.95c-22.05-.03-39.92-17.9-39.95-39.95v-.1Z"/>
    </clipPath>
    <clipPath id="clippath-6">
      <circle class="cls-3" cx="56" cy="408" r="24"/>
    </clipPath>
  </defs>
  <g id="Layer_1-2" data-name="Layer 1">
    <g>
      <g class="cls-7">
        <rect class="cls-4" x="-18" y="-18" width="500" height="500"/>
      </g>
      <g class="cls-5">
        <rect class="cls-4" width="112" height="112"/>
      </g>
      <g class="cls-1">
        <rect class="cls-4" x="32" y="32" width="48" height="48"/>
      </g>
      <g class="cls-8">
        <rect class="cls-4" x="352" width="112" height="112"/>
      </g>
      <g class="cls-6">
        <rect class="cls-4" x="384" y="32" width="48" height="48"/>
      </g>
      <g class="cls-9">
        <rect class="cls-4" y="352" width="112" height="112"/>
      </g>
      <g class="cls-2">
        <rect class="cls-4" x="32" y="384" width="48" height="48"/>
      </g>
    </g>
  </g>
</svg>