<?xml version="1.0" encoding="UTF-8"?>
<svg id="Layer_2" data-name="Layer 2" xmlns="http://www.w3.org/2000/svg" viewBox="0 0 944.63 362.96">
  <defs>
    <style>
      .cls-1 {
        fill: #fff;
        stroke-width: 0px;
      }
    </style>
  </defs>
  <g id="Layer_1-2" data-name="Layer 1">
    <g>
      <g>
        <polygon class="cls-1" points="944.59 49.55 944.59 49.5 944.54 49.5 860.28 0 860.28 140.06 944.59 90.52 944.63 90.52 944.63 49.55 944.59 49.55"/>
        <polygon class="cls-1" points="691.71 239.12 744.38 208.16 744.38 147.34 775.97 128.8 775.97 49.5 691.71 0 691.71 239.12"/>
        <polygon class="cls-1" points="523 .05 523 338.21 575.72 307.25 575.72 167.14 607.31 148.6 607.31 49.55 607.31 49.5 607.22 49.5 523 .05"/>
      </g>
      <g>
        <polygon class="cls-1" points="797.06 116.39 797.01 116.43 797.01 177.24 839.23 152.44 839.23 141.18 797.06 116.39"/>
        <polygon class="cls-1" points="628.4 276.29 670.58 251.54 670.58 161.02 628.4 136.22 628.4 276.29"/>
        <polygon class="cls-1" points="480.88 362.96 501.92 350.63 501.92 289.83 480.88 302.2 480.88 362.96"/>
      </g>
      <g>
        <path class="cls-1" d="m471.63,229.31c0,2.39-.87,4.3-2.6,5.72-1.78,1.44-4.22,2.16-7.34,2.16-1.61,0-2.85-.04-3.71-.13v-14.96c1.57-.08,2.89-.12,3.97-.12,6.46,0,9.68,2.44,9.68,7.34m9.12,31.95l-11.97-15.69c-1.1-1.42-2.35-2.97-3.75-4.67,3.66-.27,6.68-1.46,9.05-3.56,2.54-2.29,3.81-5.22,3.81-8.8,0-7.64-4.97-11.46-14.9-11.46-4.66,0-8.32.09-10.99.29v43.89h5.97v-19.63h.79l14.39,19.63h7.59Zm-42.94-21.6c0,5.25-1.35,9.43-4.07,12.55-2.56,2.92-5.82,4.38-9.78,4.38-4.53,0-7.99-1.63-10.38-4.89-2.27-3.07-3.4-7.32-3.4-12.73s1.36-9.47,4.07-12.58c2.56-2.94,5.82-4.42,9.78-4.42,4.49,0,7.94,1.63,10.35,4.89,2.29,3.09,3.43,7.36,3.43,12.8m6.38-.92c0-6.82-1.62-12.14-4.86-15.97-3.39-4.04-8.3-6.07-14.73-6.07-5.93,0-10.82,2.02-14.67,6.07-4.09,4.28-6.13,9.97-6.13,17.09s1.61,12.18,4.83,16.01c3.4,4.02,8.32,6.03,14.73,6.03,5.93,0,10.83-2.01,14.7-6.03,4.09-4.3,6.13-10.01,6.13-17.12m-47.51,15.5c-2.95,1.46-6.15,2.19-9.62,2.19-9.93,0-14.9-5.67-14.9-17.02,0-5.14,1.13-9.23,3.4-12.26,2.5-3.36,6.13-5.05,10.9-5.05,3.2,0,6.46.56,9.78,1.69l.95-5.47c-3.12-.91-6.47-1.36-10.07-1.36-7.11,0-12.55,2.23-16.29,6.7-3.45,4.09-5.18,9.67-5.18,16.74,0,6.54,1.57,11.66,4.7,15.34,3.41,4.02,8.5,6.03,15.27,6.03,4.24,0,8.25-.77,12.04-2.32l-.98-5.21Zm-38.49,7.02v-5.02h-16.61v-15.21h15.81v-4.79h-15.81v-13.94h16.61v-4.92h-22.58v43.89h22.58Zm-36.97-22.04c0,5.74-1.64,10.1-4.93,13.08-3.03,2.75-7.22,4.13-12.57,4.13-2.25,0-4.18-.13-5.81-.38v-33.82c3.26-.13,5.45-.19,6.57-.19,11.16,0,16.74,5.73,16.74,17.18m6.29-.41c0-14.44-7.47-21.66-22.42-21.66l-13.15.29v43.83c.99,0,2.7.04,5.11.13,2.44.08,4.44.12,6.01.12,7.41,0,13.29-1.9,17.62-5.72,4.55-4,6.83-9.67,6.83-16.99m-54.91-16.45v-4.99h-31.28v4.99h12.61v38.9h6v-38.9h12.67Zm-41.73,23.88h-15.63l5.94-16.58c.61-1.75,1.22-3.71,1.81-5.87h.12c.62,2.2,1.25,4.2,1.91,6l5.84,16.45Zm11.91,15.02l-16.07-43.89h-6.77l-15.94,43.89h6.13l3.62-10.29h18.68l3.65,10.29h6.7Zm-50.43-31.95c0,2.39-.87,4.3-2.6,5.72-1.78,1.44-4.23,2.16-7.34,2.16-1.61,0-2.85-.04-3.71-.13v-14.96c1.57-.08,2.89-.12,3.97-.12,6.46,0,9.69,2.44,9.69,7.34m9.12,31.95l-11.97-15.69c-1.1-1.42-2.35-2.97-3.75-4.67,3.66-.27,6.68-1.46,9.05-3.56,2.54-2.29,3.81-5.22,3.81-8.8,0-7.64-4.96-11.46-14.89-11.46-4.66,0-8.32.09-10.99.29v43.89h5.97v-19.63h.79l14.39,19.63h7.59Zm-46.75-15.02h-15.62l5.94-16.58c.62-1.75,1.22-3.71,1.81-5.87h.13c.61,2.2,1.25,4.2,1.9,6l5.84,16.45Zm11.91,15.02l-16.07-43.89h-6.76l-15.95,43.89h6.13l3.62-10.29h18.68l3.65,10.29h6.7Zm-42.56-12.9c0-3.09-1.04-5.62-3.11-7.59-1.44-1.33-3.75-2.64-6.92-3.94-3.73-1.53-6.04-2.57-6.93-3.14-2.07-1.38-3.11-3.09-3.11-5.15,0-4.55,2.94-6.83,8.83-6.83,2.48,0,4.99.39,7.56,1.18l.7-5.27c-2.37-.57-5.01-.86-7.94-.86-4.83,0-8.62,1.18-11.37,3.53-2.65,2.22-3.97,5.19-3.97,8.89,0,3.14,1.04,5.69,3.12,7.66,1.4,1.31,3.66,2.6,6.79,3.88,3.64,1.48,5.92,2.52,6.83,3.11,2.07,1.4,3.11,3.18,3.11,5.34,0,2.54-.95,4.47-2.86,5.78-1.67,1.14-3.88,1.71-6.64,1.71-3.2,0-6.28-.59-9.24-1.78l-.73,5.75c2.88.8,6.09,1.21,9.62,1.21,4.89,0,8.83-1.26,11.82-3.78,2.96-2.48,4.44-5.71,4.44-9.69m-41.86-2.13h-15.62l5.94-16.58c.62-1.75,1.22-3.71,1.81-5.87h.13c.61,2.2,1.25,4.2,1.9,6l5.84,16.45Zm11.91,15.02l-16.07-43.89h-6.77l-15.94,43.89h6.13l3.62-10.29h18.68l3.65,10.29h6.7Zm-42.53,0l-6.64-43.89h-7.4l-9.49,28.07c-.8,2.41-1.61,5.19-2.41,8.32h-.06c-1.01-3.9-1.86-6.8-2.54-8.7l-9.31-27.69h-7.27l-6.45,43.89h6.13l2.99-24.9c.59-4.4.98-8.29,1.18-11.66h.12c.66,3.12,1.59,6.47,2.8,10.07l8.89,26.49h6.38l9.37-28.3c.7-2.16,1.46-4.91,2.29-8.26h.13c.27,2.84.73,6.54,1.36,11.12l3.68,25.44h6.26Z"/>
        <g>
          <path class="cls-1" d="m133.09,179.37c-1.27,0-2.33.44-3.18,1.32-.85.85-1.28,1.9-1.28,3.14,0,1.32.43,2.41,1.28,3.26.85.88,1.92,1.32,3.18,1.32s2.3-.45,3.18-1.36c.88-.88,1.32-1.96,1.32-3.22s-.44-2.33-1.32-3.18c-.88-.86-1.94-1.28-3.18-1.28Z"/>
          <path class="cls-1" d="m145.6,179.37c-1.26,0-2.34.44-3.22,1.32-.88.85-1.32,1.9-1.32,3.14s.44,2.38,1.32,3.26c.88.88,1.96,1.32,3.22,1.32s2.29-.45,3.14-1.36c.85-.88,1.28-1.96,1.28-3.22s-.43-2.33-1.28-3.18c-.85-.86-1.9-1.28-3.14-1.28Z"/>
          <path class="cls-1" d="m20.65,172.35c0,5.29-1.01,9.07-3.01,11.36-1.76,2.06-4.52,3.1-8.26,3.1-3.08,0-5.93-.48-8.55-1.44L0,191.8c2.97.77,5.9,1.16,8.79,1.16,13.08,0,19.61-7.1,19.61-21.31v-40.18h-7.76v40.88Z"/>
          <path class="cls-1" d="m246.81,123.7c1.21,0,2.26-.44,3.14-1.32.88-.91,1.32-2,1.32-3.26s-.44-2.3-1.32-3.18c-.85-.85-1.9-1.28-3.14-1.28s-2.34.44-3.22,1.32c-.85.88-1.28,1.93-1.28,3.14,0,1.32.43,2.42,1.28,3.3.88.85,1.96,1.28,3.22,1.28Z"/>
          <path class="cls-1" d="m259.33,123.7c1.21,0,2.25-.44,3.1-1.32.85-.88,1.28-1.97,1.28-3.26s-.43-2.3-1.28-3.18c-.83-.85-1.86-1.28-3.1-1.28s-2.34.44-3.22,1.32c-.91.88-1.36,1.93-1.36,3.14,0,1.32.45,2.42,1.36,3.3.85.85,1.93,1.28,3.22,1.28Z"/>
          <path class="cls-1" d="m269.32,165.04h-14.41c-8.5,0-14.51-1.61-18-4.83-3.17-2.95-4.75-7.78-4.75-14.49,0-5.34,1.07-10.2,3.22-14.58l-8.26,1.44c-1.87,4.02-2.81,8.7-2.81,14.04,0,8.26,2.27,14.37,6.81,18.34,4.79,4.19,12.41,6.27,22.88,6.27h23.08v-39.77h-7.76v33.57Z"/>
          <path class="cls-1" d="m142.92,165.04h-23.5c-.25-8.92-2.19-16.05-5.82-21.39-3.28-4.85-8.28-8.65-14.99-11.4l23-14.12v-7.89l-32.05,20.15v5.74c7.55,2.15,13.05,5.43,16.52,9.83,3.63,4.6,5.51,10.96,5.62,19.08h-35.27v-31.51c-5.15-1.98-10.82-2.97-17.01-2.97-6.88,0-12.24,2.09-16.06,6.28-3.5,3.83-5.24,8.73-5.24,14.7,0,13.13,7.39,19.7,22.17,19.7h8.51v2.02c0,8.81-5.39,13.21-16.15,13.21-4.27,0-8.77-.54-13.5-1.61l-.54,6.48c4.46.85,8.86,1.28,13.21,1.28,8.42,0,14.8-2.06,19.12-6.19,3.66-3.5,5.49-8.03,5.49-13.59v-1.61h74.25v-39.77h-7.76v33.57Zm-74.12,0h-7.43c-10.27,0-15.4-4.79-15.4-14.37,0-4.21,1.13-7.59,3.38-10.12,2.26-2.56,5.34-3.84,9.25-3.84s7.45.66,10.2,1.98v26.35Z"/>
          <path class="cls-1" d="m322.84,172.35c0,5.29-1.01,9.07-3.01,11.36-1.76,2.06-4.52,3.1-8.26,3.1-3.08,0-5.93-.48-8.55-1.44l-.83,6.44c2.97.77,5.9,1.16,8.79,1.16,13.08,0,19.62-7.1,19.62-21.31v-40.18h-7.76v40.88Z"/>
          <path class="cls-1" d="m462.79,130.56c-6.72,0-11.99,2.06-15.81,6.19-3.55,3.8-5.33,8.62-5.33,14.45,0,6.88,2.09,11.64,6.27,14.29-1.32-.3-2.96-.45-4.91-.45h-14.79c.39-4.82.58-8.96.58-12.43,0-8.75-1.02-16.75-3.05-23.99l-7.51,1.36c1.87,7.13,2.81,14.9,2.81,23.33,0,3.96-.23,7.88-.7,11.73h-2.77c-4.82,0-8.03-.58-9.62-1.73-1.82-1.35-2.72-4.17-2.72-8.46v-21.68h-7.56v18.87c0,9.09-2.91,13.63-8.71,13.63-3.08,0-5.11-1.2-6.07-3.59-.69-1.71-1.03-5.08-1.03-10.12v-15.4h-7.76v16.93c0,4.35-.69,7.39-2.06,9.13-1.3,1.63-3.51,2.43-6.65,2.43h-11.69v-53.43h-7.76v59.63h19.45c5.92,0,9.69-2.23,11.31-6.69,1.35,4.85,5,7.27,10.94,7.27,6.63,0,10.89-2.45,12.76-7.35,1.21,2.62,3.1,4.4,5.66,5.37,2.45.94,6.37,1.4,11.77,1.4h63.06v-21.72c0-12.64-6.03-18.96-18.09-18.96Zm10.49,34.48h-8.38c-10.27,0-15.4-4.76-15.4-14.29,0-4.27,1.13-7.65,3.39-10.16,2.25-2.58,5.34-3.88,9.25-3.88,7.43,0,11.15,4.71,11.15,14.12v14.2Z"/>
          <path class="cls-1" d="m170.17,129.77l-1.94,6.61c7.43,2.29,12.83,5.7,16.19,10.24,3.3,4.49,5.01,10.63,5.12,18.42h-27.13v6.19h34.85v-4.21c0-10.41-2.21-18.55-6.64-24.45-4.24-5.62-11.06-9.88-20.44-12.8Z"/>
          <rect class="cls-1" x="292.49" y="111.61" width="7.76" height="59.63"/>
        </g>
      </g>
    </g>
  </g>
</svg>