<?xml version="1.0" encoding="UTF-8"?>
<svg id="Layer_2" data-name="Layer 2" xmlns="http://www.w3.org/2000/svg" viewBox="0 0 463.75 362.96">
  <defs>
    <style>
      .cls-1 {
        fill: #fff;
        stroke-width: 0px;
      }
    </style>
  </defs>
  <g id="Layer_1-2" data-name="Layer 1">
    <g>
      <polygon class="cls-1" points="463.71 49.55 463.71 49.5 463.67 49.5 379.4 0 379.4 140.06 463.71 90.52 463.75 90.52 463.75 49.55 463.71 49.55"/>
      <polygon class="cls-1" points="210.83 239.12 263.51 208.16 263.51 147.34 295.1 128.8 295.1 49.5 210.83 0 210.83 239.12"/>
      <polygon class="cls-1" points="42.13 .05 42.13 338.21 94.85 307.25 94.85 167.14 126.44 148.6 126.44 49.55 126.44 49.5 126.35 49.5 42.13 .05"/>
      <g>
        <polygon class="cls-1" points="316.18 116.39 316.14 116.43 316.14 177.24 358.36 152.44 358.36 141.18 316.18 116.39"/>
        <polygon class="cls-1" points="147.52 276.29 189.7 251.54 189.7 161.02 147.52 136.22 147.52 276.29"/>
        <polygon class="cls-1" points="0 362.96 21.04 350.63 21.04 289.83 0 302.2 0 362.96"/>
      </g>
    </g>
  </g>
</svg>